<svg width="21" height="11" viewBox="0 0 21 11" fill="none" xmlns="http://www.w3.org/2000/svg">
<path d="M21.6 9.75C21.6 9.55109 21.5052 9.36032 21.3364 9.21967C21.1676 9.07902 20.9387 9 20.7 9H15.3C15.0613 9 14.8324 9.07902 14.6636 9.21967C14.4948 9.36032 14.4 9.55109 14.4 9.75C14.4 9.94891 14.4948 10.1397 14.6636 10.2803C14.8324 10.421 15.0613 10.5 15.3 10.5H20.7C20.9387 10.5 21.1676 10.421 21.3364 10.2803C21.5052 10.1397 21.6 9.94891 21.6 9.75ZM21.6 5.25C21.6 5.05109 21.5052 4.86032 21.3364 4.71967C21.1676 4.57902 20.9387 4.5 20.7 4.5H8.1C7.86131 4.5 7.63239 4.57902 7.4636 4.71967C7.29482 4.86032 7.2 5.05109 7.2 5.25C7.2 5.44891 7.29482 5.63968 7.4636 5.78033C7.63239 5.92098 7.86131 6 8.1 6H20.7C20.9387 6 21.1676 5.92098 21.3364 5.78033C21.5052 5.63968 21.6 5.44891 21.6 5.25ZM21.6 0.75C21.6 0.551088 21.5052 0.360322 21.3364 0.21967C21.1676 0.0790178 20.9387 0 20.7 0H0.9C0.661305 0 0.432387 0.0790178 0.263604 0.21967C0.0948213 0.360322 0 0.551088 0 0.75C0 0.948912 0.0948213 1.13968 0.263604 1.28033C0.432387 1.42098 0.661305 1.5 0.9 1.5H20.7C20.9387 1.5 21.1676 1.42098 21.3364 1.28033C21.5052 1.13968 21.6 0.948912 21.6 0.75Z" fill="#1E1E1E"/>
</svg>
